<svg width="370" height="506" viewBox="0 0 370 506" fill="none" xmlns="http://www.w3.org/2000/svg">
<path d="M176.471 0L252.94 68.8221L255.026 73.6883L250.855 86.8965L245.989 88.9821L173.691 46.5766L101.393 88.9821L96.5265 86.8965L92.3555 73.6883L94.441 68.8221L170.91 0H176.471Z" fill="#FFF8F0"/>
<path d="M365.169 163.228C354.704 167.45 346.259 171.214 339.833 174.519C333.407 177.823 327.073 182.046 320.831 187.187C314.772 192.327 309.264 198.753 304.307 206.464L213.979 344.986V437.793C213.979 450.461 215.172 459.824 217.559 465.883C219.946 471.941 223.159 475.98 227.198 478C231.42 480.019 237.571 481.763 245.649 483.232C256.481 485.068 265.844 487.73 273.739 491.219L273.188 505.539H95.2854L94.7346 491.219C99.508 488.465 104.006 486.537 108.229 485.435C112.635 484.334 118.051 483.324 124.477 482.406C132.188 481.304 137.971 479.836 141.826 478C145.682 476.164 148.803 472.033 151.19 465.607C153.577 459.181 154.77 449.176 154.77 435.59V350.769L54.2521 193.245C50.0294 186.636 42.1349 180.118 30.5684 173.692C19.002 167.267 8.81252 163.044 0 161.024V146.979H170.743L171.293 161.3C160.645 163.136 150.547 166.532 141 171.489C131.637 176.263 126.955 182.78 126.955 191.042C126.955 196.917 133.014 209.677 145.131 229.321C157.248 248.782 173.038 273.109 192.498 302.3L205.442 321.853C206.543 319.833 209.114 315.978 213.153 310.287C255.747 247.314 277.044 207.749 277.044 191.593C277.044 184.249 273.464 178.649 266.303 174.794C259.143 170.755 249.872 167.267 238.489 164.329C238.122 164.329 235.827 163.687 231.604 162.401L231.053 154.966C231.053 153.681 231.237 151.019 231.604 146.979H369.85V161.3L365.169 163.228Z" fill="#FFF8F0"/>
</svg>
